<?xml version="1.0" encoding="UTF-8"?>
<svg id="Layer_1" data-name="Layer 1" xmlns="http://www.w3.org/2000/svg" viewBox="0 0 3193.24 729.95">
  <defs>
    <style>
      .cls-1 {
        fill: #e7f0fa;
      }
    </style>
  </defs>
  <path class="cls-1" d="M132.19,0l136.04,427.64h5.22L409.77,0h131.92l-194.03,562.85h-153.36L0,0h132.19Z"/>
  <path class="cls-1" d="M797.83,571.1c-42.69,0-79.56-9.11-110.62-27.35-31.06-18.23-55.01-43.7-71.87-76.4-16.86-32.71-25.28-70.67-25.28-113.92s8.43-81.76,25.28-114.47c16.86-32.7,40.81-58.17,71.87-76.4,31.06-18.23,67.93-27.34,110.62-27.34s79.56,9.12,110.62,27.34c31.06,18.23,55.01,43.7,71.87,76.4,16.86,32.7,25.28,70.86,25.28,114.47s-8.43,81.21-25.28,113.92c-16.86,32.7-40.81,58.17-71.87,76.4-31.06,18.23-67.93,27.35-110.62,27.35ZM798.38,480.4c19.42,0,35.63-5.54,48.64-16.63,13.01-11.08,22.85-26.25,29.55-45.48,6.69-19.24,10.03-41.13,10.03-65.68s-3.35-46.45-10.03-65.68c-6.69-19.24-16.54-34.45-29.55-45.62-13.01-11.17-29.23-16.76-48.64-16.76s-36.05,5.59-49.33,16.76c-13.29,11.18-23.27,26.38-29.96,45.62-6.69,19.24-10.03,41.13-10.03,65.68s3.34,46.45,10.03,65.68c6.69,19.24,16.67,34.4,29.96,45.48,13.28,11.09,29.72,16.63,49.33,16.63Z"/>
  <path class="cls-1" d="M1154.28,721.15c-14.84,0-28.72-1.15-41.64-3.43-12.92-2.29-23.59-5.18-32.02-8.66l26.38-87.4c13.74,4.21,26.15,6.5,37.24,6.87,11.08.37,20.7-2.2,28.86-7.7,8.15-5.5,14.79-14.84,19.93-28.03l6.87-17.86-151.43-434.23h123.12l87.4,310.01h4.4l88.22-310.01h123.95l-164.07,467.76c-7.88,22.72-18.55,42.55-32.02,59.5-13.47,16.95-30.46,30.05-50.98,39.3-20.52,9.25-45.26,13.88-74.2,13.88Z"/>
  <path class="cls-1" d="M1655.85,570.82c-26.93,0-50.94-4.72-72.01-14.15-21.07-9.43-37.7-23.45-49.88-42.05-12.19-18.59-18.28-41.82-18.28-69.67,0-23.45,4.3-43.15,12.92-59.09,8.61-15.94,20.34-28.76,35.18-38.48,14.84-9.71,31.74-17.04,50.71-21.99,18.96-4.95,38.89-8.42,59.78-10.44,24.55-2.56,44.34-4.99,59.36-7.28,15.02-2.29,25.92-5.72,32.7-10.31,6.78-4.58,10.17-11.36,10.17-20.34v-1.65c0-17.4-5.45-30.87-16.35-40.4-10.9-9.52-26.34-14.29-46.31-14.29-21.07,0-37.84,4.63-50.29,13.88-12.46,9.25-20.71,20.84-24.73,34.77l-108.28-8.8c5.5-25.65,16.31-47.86,32.43-66.65,16.12-18.78,36.97-33.25,62.52-43.42,25.56-10.17,55.19-15.25,88.91-15.25,23.45,0,45.94,2.75,67.47,8.25,21.53,5.5,40.68,14.02,57.44,25.56,16.76,11.54,30,26.34,39.71,44.38,9.71,18.05,14.57,39.62,14.57,64.72v284.72h-111.03v-58.54h-3.3c-6.78,13.19-15.85,24.78-27.21,34.77-11.36,9.99-25.01,17.77-40.95,23.36-15.94,5.59-34.35,8.38-55.24,8.38ZM1689.38,490.02c17.22,0,32.43-3.44,45.62-10.31,13.19-6.87,23.54-16.17,31.06-27.89,7.51-11.72,11.27-25.01,11.27-39.85v-44.8c-3.67,2.38-8.66,4.53-14.98,6.46-6.32,1.92-13.42,3.67-21.3,5.22-7.88,1.56-15.76,2.93-23.64,4.12-7.88,1.19-15.03,2.25-21.44,3.16-13.74,2.02-25.74,5.22-36,9.62-10.26,4.4-18.23,10.31-23.91,17.73-5.68,7.42-8.52,16.63-8.52,27.62,0,15.94,5.81,28.08,17.45,36.42,11.63,8.34,26.43,12.51,44.38,12.51Z"/>
  <path class="cls-1" d="M2174.72,729.95c-37.93,0-70.4-5.18-97.43-15.53-27.03-10.35-48.51-24.42-64.45-42.19-15.94-17.77-26.29-37.75-31.06-59.91l108.28-14.57c3.3,8.42,8.52,16.31,15.67,23.64,7.15,7.33,16.63,13.23,28.45,17.73,11.82,4.49,26.25,6.73,43.29,6.73,25.46,0,46.49-6.18,63.07-18.55,16.58-12.37,24.87-33.03,24.87-61.97v-77.23h-4.95c-5.13,11.73-12.83,22.81-23.09,33.25-10.26,10.44-23.45,18.96-39.58,25.56-16.12,6.6-35.36,9.89-57.71,9.89-31.7,0-60.51-7.37-86.43-22.12-25.93-14.75-46.54-37.38-61.84-67.88-15.3-30.51-22.95-69.12-22.95-115.84s7.79-87.76,23.36-119.83c15.57-32.06,36.32-56.07,62.25-72.01,25.92-15.94,54.37-23.91,85.34-23.91,23.64,0,43.42,3.98,59.36,11.96,15.94,7.97,28.81,17.86,38.61,29.68,9.8,11.82,17.36,23.41,22.67,34.77h4.4v-70.91h116.25v426.26c0,35.91-8.8,65.96-26.38,90.14-17.59,24.19-41.91,42.37-72.97,54.55-31.06,12.18-66.74,18.28-107.05,18.28ZM2177.19,468.86c18.87,0,34.86-4.72,47.96-14.15,13.1-9.43,23.18-22.99,30.23-40.68,7.05-17.68,10.58-38.89,10.58-63.62s-3.48-46.21-10.44-64.45c-6.97-18.23-17.04-32.38-30.23-42.46-13.19-10.07-29.23-15.12-48.1-15.12s-35.45,5.18-48.65,15.53c-13.19,10.35-23.18,24.69-29.96,43.01-6.78,18.32-10.17,39.48-10.17,63.49s3.44,45.39,10.31,63.07c6.87,17.68,16.86,31.33,29.96,40.95,13.1,9.62,29.27,14.43,48.51,14.43Z"/>
  <path class="cls-1" d="M2666.94,571.1c-43.42,0-80.76-8.84-111.99-26.52-31.24-17.68-55.29-42.78-72.14-75.3-16.86-32.52-25.28-71.04-25.28-115.57s8.43-81.53,25.28-114.33c16.86-32.8,40.63-58.36,71.32-76.68,30.69-18.32,66.74-27.48,108.15-27.48,27.85,0,53.82,4.44,77.91,13.33,24.09,8.89,45.16,22.22,63.21,39.99,18.04,17.77,32.11,40.08,42.19,66.92,10.07,26.84,15.12,58.22,15.12,94.13v32.15h-356.46v-72.56h246.25c0-16.85-3.67-31.78-10.99-44.8-7.33-13.01-17.45-23.22-30.37-30.64s-27.89-11.13-44.93-11.13-33.49,4.08-47.13,12.23c-13.65,8.16-24.32,19.06-32.02,32.7-7.7,13.65-11.64,28.81-11.82,45.48v68.98c0,20.89,3.89,38.94,11.68,54.14,7.79,15.21,18.83,26.93,33.12,35.18,14.29,8.24,31.24,12.37,50.84,12.37,13.01,0,24.91-1.83,35.73-5.5,10.81-3.66,20.06-9.16,27.76-16.49,7.7-7.32,13.56-16.3,17.59-26.93l108.28,7.15c-5.5,26.02-16.72,48.69-33.67,68.02-16.95,19.33-38.75,34.35-65.41,45.07-26.66,10.72-57.4,16.08-92.21,16.08Z"/>
  <path class="cls-1" d="M2937.1,562.85V140.71h113.5v73.65h4.4c7.7-26.2,20.61-46.03,38.75-59.5,18.14-13.47,39.03-20.2,62.66-20.2,5.86,0,12.18.37,18.96,1.1,6.78.73,12.73,1.74,17.86,3.02v103.89c-5.5-1.65-13.1-3.11-22.81-4.4-9.71-1.28-18.6-1.92-26.66-1.92-17.22,0-32.57,3.71-46.04,11.13-13.47,7.42-24.09,17.73-31.88,30.92-7.79,13.19-11.68,28.4-11.68,45.62v238.83h-117.08Z"/>
</svg>