<?xml version="1.0" encoding="UTF-8"?>
<svg id="Layer_2" data-name="Layer 2" xmlns="http://www.w3.org/2000/svg" viewBox="0 0 1727.6 1727.6">
  <defs>
    <style>
      .cls-1 {
        fill: #231f20;
      }
    </style>
  </defs>
  <g id="Layer_1-2" data-name="Layer 1">
    <path class="cls-1" d="M591.38,435.12c0,88.54-71.78,160.31-160.31,160.31,88.54,0,160.31,71.78,160.31,160.31,0-88.54,71.78-160.31,160.31-160.31-88.54,0-160.31-71.78-160.31-160.31h0Z"/>
    <path class="cls-1" d="M876.32,659.41c-102.45,7.14-183.53,88.21-190.66,190.66-9.46,135.73-75.66,284.94-192.57,410.68,125.74-116.91,274.96-183.12,410.68-192.57,102.45-7.14,183.53-88.21,190.66-190.66,9.46-135.73,75.66-284.94,192.57-410.68-125.74,116.91-274.96,183.12-410.68,192.57ZM976.75,864.55c0,47.43-38.45,85.87-85.87,85.87h-1.36c-75.77,0-114.73-91.29-61.8-145.5.92-.95,1.86-1.88,2.8-2.81,54.3-53.54,146.24-15.17,146.24,61.09v1.35Z"/>
    <path class="cls-1" d="M1370.52,0H357.08C159.87,0,0,159.87,0,357.08v1013.44c0,197.21,159.87,357.08,357.08,357.08h1013.44c197.21,0,357.08-159.87,357.08-357.08V357.08C1727.6,159.87,1567.73,0,1370.52,0ZM1530.55,918.76c0,337.88-273.91,611.79-611.79,611.79h-109.91c-337.88,0-611.79-273.91-611.79-611.79v-109.91c0-337.88,273.91-611.79,611.79-611.79h109.91c337.88,0,611.79,273.91,611.79,611.79v109.91Z"/>
  </g>
</svg>